<svg id="SvgjsSvg1121" width="1000" height="1000" xmlns="http://www.w3.org/2000/svg" version="1.1" xmlns:xlink="http://www.w3.org/1999/xlink" xmlns:svgjs="http://svgjs.com/svgjs" overflow="visible"><defs id="SvgjsDefs1122"></defs><g id="SvgjsG1123" class="signage-logo" opacity="1"><defs id="SvgjsDefs1112"></defs><g id="SvgjsG1113" transform="scale(1.2311688311688311)" opacity="1"><g id="SvgjsG1114" class="FvKL7-d6n" transform="translate(1.6393641288914296e-7, 0) scale(0.8183332964504566)" light-content="false" fill="#f562a6"><path fill-rule="evenodd" clip-rule="evenodd" d="M59.457 59.166a2.009 2.009 0 0 1-3.552-1.282c0-.599.265-1.135.679-1.503A11.965 11.965 0 0 0 60 48V30a2 2 0 0 0-2-2h-8a4.998 4.998 0 0 1-4.999-4.999V16c0-6.628-5.374-12-12-12H16C9.372 4 4 9.372 4 16v32c0 6.628 5.372 12 12 12h22a2 2 0 1 1 0 4H16C7.164 64 0 56.836 0 48V16C0 7.164 7.164 0 16 0h17.001c8.837 0 16 7.164 16 16v6a2 2 0 0 0 2 2h8A4.999 4.999 0 0 1 64 29.001V48c0 4.344-1.73 8.283-4.543 11.166zM18 24a2 2 0 1 1 0-4h12a2 2 0 1 1 0 4H18zm-2 18a2 2 0 0 1 2-2h24a2 2 0 1 1 0 4H18a2 2 0 0 1-2-2zm30 18a2 2 0 1 1 .001 3.999A2 2 0 0 1 46 60z"></path></g><g id="SvgjsG1115" class="text" transform="translate(270.4946060472424, 42.1399992522297) scale(1)" light-content="false" fill="#f72841"><path d="M-189.37 -31.37L-189.37 0L-182.97 0L-182.97 -9.36L-182.08 -9.34C-181.39 -9.31 -180.84 -9.29 -180.42 -9.29C-176.3 -9.29 -173.16 -10.27 -171.02 -12.22C-168.88 -14.16 -167.81 -17.01 -167.81 -20.77C-167.81 -24.72 -168.89 -27.63 -171.04 -29.5C-173.2 -31.37 -176.46 -32.3 -180.83 -32.3C-183.62 -32.3 -186.47 -31.99 -189.37 -31.37ZM-175.57 -15.95C-176.59 -14.96 -178.17 -14.47 -180.31 -14.47C-181.33 -14.47 -182.22 -14.53 -182.97 -14.64L-182.97 -26.89C-182.09 -27.05 -181.18 -27.13 -180.25 -27.13C-178.12 -27.13 -176.55 -26.61 -175.55 -25.59C-174.54 -24.56 -174.04 -22.92 -174.04 -20.68C-174.04 -18.51 -174.55 -16.93 -175.57 -15.95Z M-156.98 0.09C-155.62 0.3 -154.32 0.41 -153.1 0.41C-150.66 0.41 -148.57 0.02 -146.83 -0.77C-145.09 -1.55 -143.76 -2.67 -142.85 -4.13C-141.93 -5.59 -141.48 -7.32 -141.48 -9.32C-141.48 -11.72 -142.12 -13.65 -143.41 -15.13C-144.69 -16.6 -146.57 -17.75 -149.03 -18.59L-151.16 -19.3C-152.17 -19.64 -152.95 -19.99 -153.5 -20.35C-154.05 -20.7 -154.44 -21.1 -154.67 -21.54C-154.9 -21.99 -155.02 -22.53 -155.02 -23.18C-155.02 -25.68 -152.99 -26.93 -148.94 -26.93C-146.81 -26.93 -144.85 -26.66 -143.05 -26.11L-143.05 -31.5C-143.91 -31.76 -144.91 -31.96 -146.04 -32.11C-147.17 -32.25 -148.34 -32.32 -149.54 -32.32C-152.16 -32.32 -154.35 -31.94 -156.13 -31.17C-157.91 -30.4 -159.24 -29.3 -160.13 -27.86C-161.02 -26.42 -161.47 -24.7 -161.47 -22.68C-161.47 -20.38 -160.84 -18.49 -159.58 -16.99C-158.32 -15.5 -156.58 -14.37 -154.35 -13.61L-152.19 -12.89C-151.09 -12.52 -150.23 -12.14 -149.61 -11.76C-148.99 -11.38 -148.55 -10.95 -148.29 -10.48C-148.03 -10.01 -147.9 -9.43 -147.9 -8.75C-147.9 -6.24 -149.68 -4.98 -153.23 -4.98C-155.62 -4.98 -158.1 -5.4 -160.67 -6.23L-160.67 -0.84C-159.58 -0.44 -158.35 -0.13 -156.98 0.09Z M-127.74 -5.5L-127.74 -13.56L-116.72 -13.56L-116.72 -19.06L-127.74 -19.06L-127.74 -26.42L-114.57 -26.42L-114.57 -31.91L-134.04 -31.91L-134.04 0L-114.35 0L-114.35 -5.5Z M-101.52 -0.91C-99.78 -0.03 -97.57 0.41 -94.88 0.41C-92.21 0.41 -90.01 -0.03 -88.3 -0.91C-86.59 -1.78 -85.32 -3.16 -84.47 -5.02C-83.63 -6.89 -83.21 -9.32 -83.21 -12.31L-83.21 -31.91L-89.47 -31.91L-89.47 -11.58C-89.47 -9.25 -89.91 -7.57 -90.79 -6.53C-91.68 -5.5 -93.04 -4.98 -94.88 -4.98C-96.72 -4.98 -98.08 -5.5 -98.98 -6.53C-99.87 -7.57 -100.31 -9.25 -100.31 -11.58L-100.31 -31.91L-106.7 -31.91L-106.7 -12.31C-106.7 -9.32 -106.27 -6.89 -105.41 -5.02C-104.56 -3.16 -103.26 -1.78 -101.52 -0.91Z M-74.29 -0.06C-71.73 0.22 -69.25 0.37 -66.85 0.37C-63.17 0.37 -60.12 -0.2 -57.71 -1.35C-55.31 -2.49 -53.5 -4.26 -52.3 -6.66C-51.1 -9.06 -50.5 -12.16 -50.5 -15.96C-50.5 -21.53 -51.77 -25.65 -54.31 -28.31C-56.84 -30.97 -60.69 -32.3 -65.85 -32.3C-68.57 -32.3 -71.38 -31.99 -74.29 -31.37ZM-60.7 -6.05C-61.88 -5.35 -63.38 -5 -65.19 -5C-66.02 -5 -66.92 -5.03 -67.88 -5.09L-67.88 -26.72C-67.05 -26.88 -66.14 -26.95 -65.14 -26.95C-63.36 -26.95 -61.88 -26.6 -60.7 -25.9C-59.52 -25.19 -58.63 -24.03 -58.02 -22.42C-57.41 -20.8 -57.1 -18.65 -57.1 -15.96C-57.1 -13.25 -57.41 -11.1 -58.02 -9.5C-58.63 -7.9 -59.52 -6.75 -60.7 -6.05Z M-39.88 -3.56C-37.6 -0.91 -34.45 0.41 -30.43 0.41C-26.4 0.41 -23.25 -0.91 -20.98 -3.56C-18.71 -6.2 -17.57 -10.34 -17.57 -15.96C-17.57 -21.58 -18.71 -25.71 -20.98 -28.36C-23.25 -31 -26.4 -32.32 -30.43 -32.32C-34.45 -32.32 -37.6 -31 -39.88 -28.36C-42.16 -25.71 -43.3 -21.58 -43.3 -15.96C-43.3 -10.34 -42.16 -6.2 -39.88 -3.56ZM-27.02 -5.96C-27.94 -5.27 -29.07 -4.92 -30.43 -4.92C-31.79 -4.92 -32.93 -5.27 -33.85 -5.97C-34.77 -6.68 -35.48 -7.85 -35.97 -9.5C-36.46 -11.14 -36.7 -13.35 -36.7 -16.11C-36.7 -18.77 -36.46 -20.9 -35.97 -22.5C-35.48 -24.1 -34.77 -25.25 -33.85 -25.95C-32.93 -26.65 -31.79 -27 -30.43 -27C-29.06 -27 -27.92 -26.65 -27 -25.94C-26.08 -25.24 -25.37 -24.06 -24.88 -22.42C-24.4 -20.77 -24.15 -18.57 -24.15 -15.81C-24.15 -13.15 -24.4 -11.02 -24.9 -9.41C-25.39 -7.81 -26.1 -6.66 -27.02 -5.96Z M11.55 -13.94C10.51 -15.23 9.06 -16.07 7.2 -16.47C8.81 -16.92 10.05 -17.78 10.91 -19.06C11.77 -20.34 12.2 -21.83 12.2 -23.53C12.2 -25.57 11.76 -27.23 10.86 -28.52C9.96 -29.8 8.58 -30.76 6.72 -31.37C4.86 -31.99 2.47 -32.3 -0.43 -32.3C-1.94 -32.3 -3.48 -32.22 -5.06 -32.05C-6.63 -31.89 -8.09 -31.66 -9.44 -31.37L-9.44 -0.24C-8.22 -0.05 -6.87 0.1 -5.39 0.2C-3.91 0.31 -2.57 0.37 -1.36 0.37C3.64 0.37 7.31 -0.4 9.63 -1.93C11.95 -3.46 13.11 -5.76 13.11 -8.84C13.11 -10.95 12.59 -12.65 11.55 -13.94ZM-3.19 -27.04C-2.03 -27.23 -0.78 -27.32 0.54 -27.32C1.92 -27.32 3.02 -27.18 3.83 -26.89C4.64 -26.6 5.23 -26.15 5.61 -25.54C5.98 -24.93 6.17 -24.12 6.17 -23.12C6.17 -22.14 5.99 -21.34 5.64 -20.72C5.29 -20.1 4.69 -19.64 3.86 -19.34C3.03 -19.04 1.89 -18.89 0.45 -18.89L-3.19 -18.89ZM4.29 -5.09C3.31 -4.77 2 -4.61 0.35 -4.61C-0.79 -4.61 -1.97 -4.66 -3.19 -4.77L-3.19 -13.71L1.1 -13.71C3.17 -13.71 4.68 -13.35 5.64 -12.61C6.59 -11.88 7.07 -10.73 7.07 -9.16C7.07 -8.09 6.85 -7.22 6.42 -6.56C5.98 -5.89 5.27 -5.41 4.29 -5.09Z M20.68 0L39.63 0L39.63 -5.67L27.08 -5.67L27.08 -31.91L20.68 -31.91Z M48.1 -3.56C50.38 -0.91 53.53 0.41 57.55 0.41C61.58 0.41 64.73 -0.91 67 -3.56C69.27 -6.2 70.4 -10.34 70.4 -15.96C70.4 -21.58 69.27 -25.71 67 -28.36C64.73 -31 61.58 -32.32 57.55 -32.32C53.53 -32.32 50.38 -31 48.1 -28.36C45.82 -25.71 44.68 -21.58 44.68 -15.96C44.68 -10.34 45.82 -6.2 48.1 -3.56ZM60.96 -5.96C60.04 -5.27 58.9 -4.92 57.55 -4.92C56.19 -4.92 55.04 -5.27 54.12 -5.97C53.2 -6.68 52.5 -7.85 52.01 -9.5C51.52 -11.14 51.28 -13.35 51.28 -16.11C51.28 -18.77 51.52 -20.9 52.01 -22.5C52.5 -24.1 53.2 -25.25 54.12 -25.95C55.04 -26.65 56.19 -27 57.55 -27C58.92 -27 60.06 -26.65 60.98 -25.94C61.9 -25.24 62.61 -24.06 63.09 -22.42C63.58 -20.77 63.83 -18.57 63.83 -15.81C63.83 -13.15 63.58 -11.02 63.08 -9.41C62.59 -7.81 61.88 -6.66 60.96 -5.96Z M100.57 -15.53L94.62 -15.53L94.62 -5.09C93.93 -5.06 93.41 -5.05 93.07 -5.05C91.1 -5.05 89.47 -5.39 88.19 -6.08C86.92 -6.77 85.94 -7.91 85.28 -9.5C84.62 -11.09 84.29 -13.2 84.29 -15.85C84.29 -18.61 84.64 -20.79 85.34 -22.4C86.03 -24.01 87.09 -25.16 88.52 -25.85C89.94 -26.54 91.8 -26.89 94.1 -26.89C95.96 -26.89 97.88 -26.63 99.86 -26.11L99.86 -31.53C97.92 -32.06 95.78 -32.32 93.43 -32.32C88.26 -32.32 84.33 -30.99 81.64 -28.33C78.95 -25.67 77.61 -21.54 77.61 -15.94C77.61 -10.29 78.94 -6.16 81.62 -3.55C84.29 -0.94 88.33 0.37 93.74 0.37C95.84 0.37 98.11 0.17 100.57 -0.24Z M131.39 -15.53L125.43 -15.53L125.43 -5.09C124.74 -5.06 124.23 -5.05 123.88 -5.05C121.91 -5.05 120.29 -5.39 119.01 -6.08C117.73 -6.77 116.76 -7.91 116.1 -9.5C115.44 -11.09 115.11 -13.2 115.11 -15.85C115.11 -18.61 115.45 -20.79 116.15 -22.4C116.85 -24.01 117.91 -25.16 119.33 -25.85C120.76 -26.54 122.62 -26.89 124.92 -26.89C126.77 -26.89 128.69 -26.63 130.67 -26.11L130.67 -31.53C128.73 -32.06 126.59 -32.32 124.25 -32.32C119.07 -32.32 115.14 -30.99 112.45 -28.33C109.77 -25.67 108.42 -21.54 108.42 -15.94C108.42 -10.29 109.76 -6.16 112.43 -3.55C115.11 -0.94 119.15 0.37 124.55 0.37C126.65 0.37 128.93 0.17 131.39 -0.24Z M146.46 -5.5L146.46 -13.56L157.48 -13.56L157.48 -19.06L146.46 -19.06L146.46 -26.42L159.63 -26.42L159.63 -31.91L140.16 -31.91L140.16 0L159.85 0L159.85 -5.5Z M184.67 0L191.51 0L183.2 -12.89C185.12 -13.67 186.59 -14.84 187.61 -16.39C188.64 -17.94 189.15 -19.84 189.13 -22.08C189.13 -25.5 188.07 -28.06 185.95 -29.76C183.83 -31.45 180.64 -32.3 176.39 -32.3C173.47 -32.3 170.55 -31.99 167.63 -31.37L167.63 0L173.93 0L173.93 -11.86C175.08 -11.8 176.01 -11.77 176.71 -11.77L177.25 -11.77ZM173.93 -16.97L173.93 -27.04C175.04 -27.21 176.13 -27.3 177.21 -27.3C179.18 -27.3 180.65 -26.87 181.62 -26.02C182.59 -25.16 183.07 -23.84 183.07 -22.06C183.07 -20.22 182.55 -18.89 181.51 -18.07C180.47 -17.25 178.86 -16.84 176.69 -16.84C175.84 -16.84 174.92 -16.88 173.93 -16.97Z"></path></g></g></g></svg>