<svg id="SvgjsSvg1040" width="1000" height="1000" xmlns="http://www.w3.org/2000/svg" version="1.1" xmlns:xlink="http://www.w3.org/1999/xlink" xmlns:svgjs="http://svgjs.com/svgjs" overflow="visible"><defs id="SvgjsDefs1041"></defs><g id="SvgjsG1042" class="signage-logo" opacity="1"><defs id="SvgjsDefs1029"></defs><g id="SvgjsG1030" transform="scale(0.6937821411874708)" opacity="1"><g id="SvgjsG1031" class="ZBAQ9fraA" transform="translate(108.33000000000007, 0) scale(5.594062499999999)" light-content="false" fill="#f15058"><path fill-rule="evenodd" clip-rule="evenodd" d="M59.457 59.166a2.009 2.009 0 0 1-3.552-1.282c0-.599.265-1.135.679-1.503A11.965 11.965 0 0 0 60 48V30a2 2 0 0 0-2-2h-8a4.998 4.998 0 0 1-4.999-4.999V16c0-6.628-5.374-12-12-12H16C9.372 4 4 9.372 4 16v32c0 6.628 5.372 12 12 12h22a2 2 0 1 1 0 4H16C7.164 64 0 56.836 0 48V16C0 7.164 7.164 0 16 0h17.001c8.837 0 16 7.164 16 16v6a2 2 0 0 0 2 2h8A4.999 4.999 0 0 1 64 29.001V48c0 4.344-1.73 8.283-4.543 11.166zM18 24a2 2 0 1 1 0-4h12a2 2 0 1 1 0 4H18zm-2 18a2 2 0 0 1 2-2h24a2 2 0 1 1 0 4H18a2 2 0 0 1-2-2zm30 18a2 2 0 1 1 .001 3.999A2 2 0 0 1 46 60z"></path></g><g id="SvgjsG1032" class="text" transform="translate(130.1999969482422, 427.2000003051757) scale(1)" light-content="false" fill="#f15058"><path d="M-106.05 -35.64C-108.23 -37.68 -111.34 -38.7 -115.38 -38.7L-130.2 -38.64L-129.78 -11.52L-130.2 0L-122.04 0L-122.4 -12.24L-122.4 -12.36L-118.56 -12.36C-115.36 -12.36 -112.57 -12.96 -110.19 -14.16C-107.81 -15.36 -105.98 -17.05 -104.7 -19.23C-103.42 -21.41 -102.78 -23.96 -102.78 -26.88C-102.78 -30.68 -103.87 -33.6 -106.05 -35.64ZM-111.24 -26.16C-111.24 -21.96 -113.08 -19.34 -116.76 -18.3L-122.28 -18.54L-122.04 -32.46L-117.96 -32.7C-115.68 -32.62 -113.99 -32.05 -112.89 -30.99C-111.79 -29.93 -111.24 -28.32 -111.24 -26.16Z M-62.82 -37.14C-66.06 -38.46 -69.32 -39.12 -72.6 -39.12C-75.36 -39.12 -77.82 -38.6 -79.98 -37.56C-82.14 -36.52 -83.82 -35.09 -85.02 -33.27C-86.22 -31.45 -86.82 -29.42 -86.82 -27.18C-86.82 -25.18 -86.34 -23.48 -85.38 -22.08C-84.42 -20.68 -83.26 -19.56 -81.9 -18.72C-80.54 -17.88 -78.78 -16.98 -76.62 -16.02C-74.26 -14.9 -72.55 -13.94 -71.49 -13.14C-70.43 -12.34 -69.9 -11.3 -69.9 -10.02C-69.9 -8.82 -70.39 -7.79 -71.37 -6.93C-72.35 -6.07 -73.72 -5.64 -75.48 -5.64C-76.96 -5.64 -78.65 -6.01 -80.55 -6.75C-82.45 -7.49 -84.2 -8.56 -85.8 -9.96L-86.7 -9.48L-87.84 -1.92C-84 -0.28 -80.18 0.54 -76.38 0.54C-73.5 0.54 -70.96 0.01 -68.76 -1.05C-66.56 -2.11 -64.86 -3.55 -63.66 -5.37C-62.46 -7.19 -61.86 -9.2 -61.86 -11.4C-61.86 -13.44 -62.35 -15.16 -63.33 -16.56C-64.31 -17.96 -65.49 -19.09 -66.87 -19.95C-68.25 -20.81 -70.04 -21.74 -72.24 -22.74C-74.52 -23.82 -76.19 -24.76 -77.25 -25.56C-78.31 -26.36 -78.84 -27.34 -78.84 -28.5C-78.84 -29.62 -78.36 -30.61 -77.4 -31.47C-76.44 -32.33 -75.16 -32.76 -73.56 -32.76C-72.36 -32.76 -71.03 -32.48 -69.57 -31.92C-68.11 -31.36 -66.7 -30.6 -65.34 -29.64L-64.14 -30.12Z M-18.84 -6.72L-28.38 -6.36L-35.16 -6.42L-35.34 -12.24L-35.28 -16.38L-29.1 -16.44L-22.26 -16.26L-21.72 -22.32L-22.2 -22.92L-28.5 -22.74L-35.16 -22.86L-34.98 -32.16L-28.02 -32.22L-18.78 -31.92L-18.18 -37.98L-18.66 -38.64L-43.14 -38.64L-42.72 -11.52L-43.14 0L-18.9 0L-18.36 -6.06Z M29.1 -19.02L29.4 -38.64L21.12 -38.64L21.54 -14.28C21.58 -8.84 19 -6.12 13.8 -6.12C11.2 -6.12 9.26 -6.82 7.98 -8.22C6.7 -9.62 6.08 -11.78 6.12 -14.7L6.54 -38.64L-1.62 -38.64L-1.44 -19.2L-1.5 -13.62C-1.62 -9.06 -0.4 -5.56 2.16 -3.12C4.72 -0.68 8.44 0.54 13.32 0.54C18.4 0.54 22.3 -0.72 25.02 -3.24C27.74 -5.76 29.08 -9.32 29.04 -13.92Z M78.12 -34.2C75.12 -37.32 70.82 -38.88 65.22 -38.88L49.68 -38.64L50.1 -11.52L49.68 0C51.56 0.12 53.81 0.22 56.43 0.3C59.05 0.38 61.3 0.42 63.18 0.42C69.42 0.42 74.22 -1.4 77.58 -5.04C80.94 -8.68 82.62 -13.92 82.62 -20.76C82.62 -26.6 81.12 -31.08 78.12 -34.2ZM74.16 -18.9C74.16 -10.22 70.98 -5.88 64.62 -5.88C62.78 -5.88 60.46 -6.02 57.66 -6.3L57.48 -12.24L57.84 -32.1C60.24 -32.3 62.5 -32.4 64.62 -32.4C67.9 -32.4 70.31 -31.33 71.85 -29.19C73.39 -27.05 74.16 -23.62 74.16 -18.9Z M128.85 -34.23C125.91 -37.53 121.72 -39.18 116.28 -39.18C110.44 -39.18 105.93 -37.42 102.75 -33.9C99.57 -30.38 97.98 -25.36 97.98 -18.84C97.98 -12.64 99.45 -7.85 102.39 -4.47C105.33 -1.09 109.5 0.6 114.9 0.6C120.74 0.6 125.26 -1.2 128.46 -4.8C131.66 -8.4 133.26 -13.52 133.26 -20.16C133.26 -26.24 131.79 -30.93 128.85 -34.23ZM108.6 -29.64C110.04 -31.64 112.36 -32.64 115.56 -32.64C118.84 -32.64 121.19 -31.55 122.61 -29.37C124.03 -27.19 124.74 -23.56 124.74 -18.48C124.74 -13.88 124.02 -10.57 122.58 -8.55C121.14 -6.53 118.82 -5.52 115.62 -5.52C112.34 -5.52 109.99 -6.62 108.57 -8.82C107.15 -11.02 106.44 -14.7 106.44 -19.86C106.44 -24.38 107.16 -27.64 108.6 -29.64Z"></path></g><g id="SvgjsG1033" class="text" transform="translate(427.0799951171875, 427.0499996948241) scale(1)" light-content="false" fill="#030303"><path d="M-119.82 -10.74C-119.82 -15.86 -122.54 -18.96 -127.98 -20.04C-126.14 -20.84 -124.72 -22.02 -123.72 -23.58C-122.72 -25.14 -122.22 -27 -122.22 -29.16C-122.22 -32.2 -123.19 -34.52 -125.13 -36.12C-127.07 -37.72 -129.84 -38.52 -133.44 -38.52L-144.12 -38.46L-143.82 -11.58L-144.12 0L-144.06 0C-141.94 0.16 -139.12 0.24 -135.6 0.24C-130.36 0.24 -126.42 -0.68 -123.78 -2.52C-121.14 -4.36 -119.82 -7.1 -119.82 -10.74ZM-128.85 -33.15C-127.71 -32.21 -127.14 -30.7 -127.14 -28.62C-127.14 -24.74 -129.02 -22.36 -132.78 -21.48L-139.38 -21.66L-139.26 -34.56L-134.4 -34.56C-131.84 -34.56 -129.99 -34.09 -128.85 -33.15ZM-127.32 -5.64C-129.08 -4.4 -131.6 -3.78 -134.88 -3.78C-136.28 -3.78 -137.76 -3.84 -139.32 -3.96L-139.5 -12L-139.44 -17.64L-132.06 -17.7C-127.14 -17.14 -124.68 -14.9 -124.68 -10.98C-124.68 -8.66 -125.56 -6.88 -127.32 -5.64Z M-80.7 -3.6L-81.06 -4.02L-95.28 -4.02L-95.46 -12L-95.16 -38.46L-100.08 -38.46L-99.78 -11.58L-100.08 0L-81.12 0Z M-38.97 -33.96C-41.79 -37.2 -45.84 -38.82 -51.12 -38.82C-56.64 -38.82 -60.89 -37.1 -63.87 -33.66C-66.85 -30.22 -68.34 -25.3 -68.34 -18.9C-68.34 -12.7 -66.93 -7.92 -64.11 -4.56C-61.29 -1.2 -57.28 0.48 -52.08 0.48C-46.52 0.48 -42.24 -1.29 -39.24 -4.83C-36.24 -8.37 -34.74 -13.42 -34.74 -19.98C-34.74 -26.06 -36.15 -30.72 -38.97 -33.96ZM-63.42 -19.44C-63.42 -29.76 -59.42 -34.92 -51.42 -34.92C-47.5 -34.92 -44.57 -33.62 -42.63 -31.02C-40.69 -28.42 -39.72 -24.44 -39.72 -19.08C-39.72 -8.56 -43.72 -3.3 -51.72 -3.3C-55.64 -3.3 -58.57 -4.62 -60.51 -7.26C-62.45 -9.9 -63.42 -13.96 -63.42 -19.44Z M11.76 -36.06C8.28 -37.86 4.52 -38.76 0.48 -38.76C-5.52 -38.76 -10.14 -37.03 -13.38 -33.57C-16.62 -30.11 -18.24 -25.08 -18.24 -18.48C-18.24 -12.36 -16.81 -7.68 -13.95 -4.44C-11.09 -1.2 -6.8 0.42 -1.08 0.42C0.8 0.42 2.74 0.24 4.74 -0.12C6.74 -0.48 9.04 -1.06 11.64 -1.86L11.4 -10.26L11.52 -15.72L7.02 -15.36L7.08 -9.6L6.96 -5.1C5.16 -4.54 3.69 -4.16 2.55 -3.96C1.41 -3.76 0.28 -3.66 -0.84 -3.66C-5.08 -3.66 -8.21 -4.87 -10.23 -7.29C-12.25 -9.71 -13.26 -13.5 -13.26 -18.66C-13.26 -29.38 -8.92 -34.74 -0.24 -34.74C1.56 -34.74 3.27 -34.48 4.89 -33.96C6.51 -33.44 8.28 -32.58 10.2 -31.38L10.8 -31.5Z M59.76 -36.06C56.28 -37.86 52.52 -38.76 48.48 -38.76C42.48 -38.76 37.86 -37.03 34.62 -33.57C31.38 -30.11 29.76 -25.08 29.76 -18.48C29.76 -12.36 31.19 -7.68 34.05 -4.44C36.91 -1.2 41.2 0.42 46.92 0.42C48.8 0.42 50.74 0.24 52.74 -0.12C54.74 -0.48 57.04 -1.06 59.64 -1.86L59.4 -10.26L59.52 -15.72L55.02 -15.36L55.08 -9.6L54.96 -5.1C53.16 -4.54 51.69 -4.16 50.55 -3.96C49.41 -3.76 48.28 -3.66 47.16 -3.66C42.92 -3.66 39.79 -4.87 37.77 -7.29C35.75 -9.71 34.74 -13.5 34.74 -18.66C34.74 -29.38 39.08 -34.74 47.76 -34.74C49.56 -34.74 51.27 -34.48 52.89 -33.96C54.51 -33.44 56.28 -32.58 58.2 -31.38L58.8 -31.5Z M103.02 -3.72L102.72 -4.2L93.48 -3.96L85.86 -4.02L85.68 -12L85.74 -17.7L92.58 -17.76L99.3 -17.64L99.72 -21.36L99.36 -21.78L93 -21.6L85.8 -21.72L85.92 -34.32L93.54 -34.44L102.6 -34.26L102.96 -37.98L102.72 -38.46L81.06 -38.46L81.36 -11.58L81.06 0L102.66 0Z M147.6 -1.14C143.6 -6.38 140.28 -11.18 137.64 -15.54C140.16 -16.7 142.11 -18.33 143.49 -20.43C144.87 -22.53 145.56 -24.9 145.56 -27.54C145.56 -31.06 144.53 -33.77 142.47 -35.67C140.41 -37.57 137.5 -38.52 133.74 -38.52L121.98 -38.46L122.28 -11.58L121.98 0L126.84 0L126.6 -12L126.6 -14.28L133.62 -14.28C136.22 -9.6 139.16 -4.8 142.44 0.12L143.1 0.54C144.62 0.38 146.1 0.02 147.54 -0.54ZM126.66 -18.36L126.84 -34.38L132.66 -34.56C135.3 -34.48 137.28 -33.83 138.6 -32.61C139.92 -31.39 140.58 -29.56 140.58 -27.12C140.58 -22.44 138.34 -19.46 133.86 -18.18Z"></path></g></g></g></svg>