<svg id="SvgjsSvg1032" width="300" height="300" xmlns="http://www.w3.org/2000/svg" version="1.1" xmlns:xlink="http://www.w3.org/1999/xlink" xmlns:svgjs="http://svgjs.com/svgjs" overflow="visible"><defs id="SvgjsDefs1033"></defs><g xmlns="http://www.w3.org/2000/svg" id="SvgjsG1040" class="signage-logo" opacity="1"><defs id="SvgjsDefs1027"/><g id="SvgjsG1028" transform="scale(0.5864859190304004)" opacity="1"><g id="SvgjsG1029" class="XUa6XAPUl" transform="translate(71.15158793879628, -4.07434332046833) scale(4.389736756685856)" light-content="false" fill="#f52947"><path d="M47 1.732l37.301 21.536a6 6 0 0 1 3 5.196v43.072a6 6 0 0 1-3 5.196L47 98.268a6 6 0 0 1-6 0L3.699 76.732a6 6 0 0 1-3-5.196V28.464a6 6 0 0 1 3-5.196L41 1.732a6 6 0 0 1 6 0z"/></g><g id="SvgjsG1030" class="nBWLkk3sKh" transform="translate(160.90199861444017, 112.01450150102308) scale(3.2311875432987436)" light-content="true" fill="#ffffff"><path fill-rule="evenodd" clip-rule="evenodd" d="M59.457 59.166a2.009 2.009 0 0 1-3.552-1.282c0-.599.265-1.135.679-1.503A11.965 11.965 0 0 0 60 48V30a2 2 0 0 0-2-2h-8a4.998 4.998 0 0 1-4.999-4.999V16c0-6.628-5.374-12-12-12H16C9.372 4 4 9.372 4 16v32c0 6.628 5.372 12 12 12h22a2 2 0 1 1 0 4H16C7.164 64 0 56.836 0 48V16C0 7.164 7.164 0 16 0h17.001c8.837 0 16 7.164 16 16v6a2 2 0 0 0 2 2h8A4.999 4.999 0 0 1 64 29.001V48c0 4.344-1.73 8.283-4.543 11.166zM18 24a2 2 0 1 1 0-4h12a2 2 0 1 1 0 4H18zm-2 18a2 2 0 0 1 2-2h24a2 2 0 1 1 0 4H18a2 2 0 0 1-2-2zm30 18a2 2 0 1 1 .001 3.999A2 2 0 0 1 46 60z"/></g></g></g></svg>