<svg id="SvgjsSvg1038" width="320" height="300" xmlns="http://www.w3.org/2000/svg" version="1.1" xmlns:xlink="http://www.w3.org/1999/xlink" xmlns:svgjs="http://svgjs.com/svgjs" overflow="visible"><defs id="SvgjsDefs1039"></defs><g id="SvgjsG1040" class="signage-logo" opacity="1"><defs id="SvgjsDefs1027"></defs><g id="SvgjsG1028" transform="scale(0.5864859190304004)" opacity="1"><g id="SvgjsG1029" class="XUa6XAPUl" transform="translate(71.15158793879628, -4.07434332046833) scale(4.389736756685856)" light-content="false" fill="#f52947"><path d="M47 1.732l37.301 21.536a6 6 0 0 1 3 5.196v43.072a6 6 0 0 1-3 5.196L47 98.268a6 6 0 0 1-6 0L3.699 76.732a6 6 0 0 1-3-5.196V28.464a6 6 0 0 1 3-5.196L41 1.732a6 6 0 0 1 6 0z"></path></g><g id="SvgjsG1030" class="nBWLkk3sKh" transform="translate(160.90199861444017, 112.01450150102308) scale(3.2311875432987436)" light-content="true" fill="#ffffff"><path fill-rule="evenodd" clip-rule="evenodd" d="M59.457 59.166a2.009 2.009 0 0 1-3.552-1.282c0-.599.265-1.135.679-1.503A11.965 11.965 0 0 0 60 48V30a2 2 0 0 0-2-2h-8a4.998 4.998 0 0 1-4.999-4.999V16c0-6.628-5.374-12-12-12H16C9.372 4 4 9.372 4 16v32c0 6.628 5.372 12 12 12h22a2 2 0 1 1 0 4H16C7.164 64 0 56.836 0 48V16C0 7.164 7.164 0 16 0h17.001c8.837 0 16 7.164 16 16v6a2 2 0 0 0 2 2h8A4.999 4.999 0 0 1 64 29.001V48c0 4.344-1.73 8.283-4.543 11.166zM18 24a2 2 0 1 1 0-4h12a2 2 0 1 1 0 4H18zm-2 18a2 2 0 0 1 2-2h24a2 2 0 1 1 0 4H18a2 2 0 0 1-2-2zm30 18a2 2 0 1 1 .001 3.999A2 2 0 0 1 46 60z"></path></g><g id="SvgjsG1031" class="text" transform="translate(263.2799987792969, 505.58500409469895) scale(1)" light-content="false" fill="#3b3b3b"><path d="M-263.28 -41.28L-263.28 0L-253.98 0L-253.98 -13.26L-246.6 -13.26C-243.24 -13.26 -240.7 -13.84 -238.98 -15C-237.26 -16.16 -236.13 -17.72 -235.59 -19.68C-235.05 -21.64 -234.78 -24.18 -234.78 -27.3C-234.78 -30.58 -235.07 -33.2 -235.65 -35.16C-236.23 -37.12 -237.36 -38.63 -239.04 -39.69C-240.72 -40.75 -243.22 -41.28 -246.54 -41.28ZM-249.78 -21L-253.98 -21L-253.98 -33.54L-249.78 -33.54C-248.02 -33.54 -246.76 -33.4 -246 -33.12C-245.24 -32.84 -244.74 -32.29 -244.5 -31.47C-244.26 -30.65 -244.14 -29.26 -244.14 -27.3C-244.14 -25.34 -244.26 -23.95 -244.5 -23.13C-244.74 -22.31 -245.24 -21.75 -246 -21.45C-246.76 -21.15 -248.02 -21 -249.78 -21Z M-223.8 -0.54C-219.96 0.14 -215.54 0.48 -210.54 0.48C-207.54 0.48 -205.11 0.18 -203.25 -0.42C-201.39 -1.02 -199.92 -2.3 -198.84 -4.26C-197.76 -6.22 -197.22 -9.12 -197.22 -12.96C-197.22 -16.24 -197.64 -18.76 -198.48 -20.52C-199.16 -21.88 -200.03 -22.84 -201.09 -23.4C-202.15 -23.96 -203.48 -24.36 -205.08 -24.6L-212.22 -25.62C-213.26 -25.78 -213.99 -25.97 -214.41 -26.19C-214.83 -26.41 -215.1 -26.76 -215.22 -27.24C-215.34 -27.72 -215.4 -28.54 -215.4 -29.7C-215.4 -30.74 -215.34 -31.51 -215.22 -32.01C-215.1 -32.51 -214.8 -32.9 -214.32 -33.18C-213.48 -33.74 -211.58 -34.02 -208.62 -34.02C-205.82 -34.02 -202.62 -33.8 -199.02 -33.36L-199.02 -40.56C-203.02 -41.36 -206.92 -41.76 -210.72 -41.76C-213.8 -41.76 -216.34 -41.46 -218.34 -40.86C-220.34 -40.26 -221.92 -39.04 -223.08 -37.2C-224.24 -35.36 -224.82 -32.7 -224.82 -29.22C-224.82 -25.62 -224.28 -22.86 -223.2 -20.94C-222.12 -19.02 -220.06 -17.84 -217.02 -17.4L-210.36 -16.44C-209.16 -16.24 -208.31 -16.02 -207.81 -15.78C-207.31 -15.54 -206.98 -15.15 -206.82 -14.61C-206.66 -14.07 -206.58 -13.16 -206.58 -11.88C-206.58 -10.92 -206.63 -10.18 -206.73 -9.66C-206.83 -9.14 -207.06 -8.7 -207.42 -8.34C-207.82 -7.94 -208.48 -7.66 -209.4 -7.5C-210.32 -7.34 -211.6 -7.26 -213.24 -7.26C-215.32 -7.26 -218.84 -7.46 -223.8 -7.86Z M-185.04 0L-160.2 0L-160.2 -7.74L-175.74 -7.74L-175.74 -16.98L-162.42 -16.98L-162.42 -24.72L-175.74 -24.72L-175.74 -33.54L-160.2 -33.54L-160.2 -41.28L-185.04 -41.28Z M-118.86 -41.28L-128.22 -41.28L-128.22 -16.02C-128.22 -13.06 -128.31 -11.03 -128.49 -9.93C-128.67 -8.83 -129.09 -8.1 -129.75 -7.74C-130.41 -7.38 -131.62 -7.2 -133.38 -7.2C-135.14 -7.2 -136.36 -7.38 -137.04 -7.74C-137.72 -8.1 -138.15 -8.84 -138.33 -9.96C-138.51 -11.08 -138.6 -13.1 -138.6 -16.02L-138.6 -41.28L-147.96 -41.28L-147.96 -18.48C-147.96 -13 -147.67 -9.01 -147.09 -6.51C-146.51 -4.01 -145.22 -2.22 -143.22 -1.14C-141.22 -0.06 -137.94 0.48 -133.38 0.48C-128.82 0.48 -125.54 -0.06 -123.54 -1.14C-121.54 -2.22 -120.26 -4 -119.7 -6.48C-119.14 -8.96 -118.86 -12.96 -118.86 -18.48Z M-105.48 -41.28L-105.48 0L-92.52 0C-87.32 0 -83.61 -0.6 -81.39 -1.8C-79.17 -3 -77.79 -4.92 -77.25 -7.56C-76.71 -10.2 -76.44 -14.56 -76.44 -20.64C-76.44 -26.72 -76.71 -31.08 -77.25 -33.72C-77.79 -36.36 -79.17 -38.28 -81.39 -39.48C-83.61 -40.68 -87.32 -41.28 -92.52 -41.28ZM-92.76 -7.74L-96.18 -7.74L-96.18 -33.54L-92.76 -33.54C-90.28 -33.54 -88.63 -33.34 -87.81 -32.94C-86.99 -32.54 -86.46 -31.55 -86.22 -29.97C-85.98 -28.39 -85.86 -25.28 -85.86 -20.64C-85.86 -16 -85.97 -12.89 -86.19 -11.31C-86.41 -9.73 -86.94 -8.74 -87.78 -8.34C-88.62 -7.94 -90.28 -7.74 -92.76 -7.74Z M-59.91 -1.35C-57.77 -0.13 -54.2 0.48 -49.2 0.48C-44.16 0.48 -40.57 -0.13 -38.43 -1.35C-36.29 -2.57 -34.96 -4.52 -34.44 -7.2C-33.92 -9.88 -33.66 -14.36 -33.66 -20.64C-33.66 -26.92 -33.92 -31.4 -34.44 -34.08C-34.96 -36.76 -36.29 -38.71 -38.43 -39.93C-40.57 -41.15 -44.16 -41.76 -49.2 -41.76C-54.2 -41.76 -57.77 -41.15 -59.91 -39.93C-62.05 -38.71 -63.39 -36.75 -63.93 -34.05C-64.47 -31.35 -64.74 -26.88 -64.74 -20.64C-64.74 -14.4 -64.47 -9.93 -63.93 -7.23C-63.39 -4.53 -62.05 -2.57 -59.91 -1.35ZM-44.85 -7.92C-45.59 -7.48 -47.04 -7.26 -49.2 -7.26C-51.36 -7.26 -52.81 -7.48 -53.55 -7.92C-54.29 -8.36 -54.76 -9.4 -54.96 -11.04C-55.16 -12.68 -55.26 -15.88 -55.26 -20.64C-55.26 -25.4 -55.16 -28.6 -54.96 -30.24C-54.76 -31.88 -54.29 -32.92 -53.55 -33.36C-52.81 -33.8 -51.36 -34.02 -49.2 -34.02C-47.04 -34.02 -45.59 -33.8 -44.85 -33.36C-44.11 -32.92 -43.64 -31.88 -43.44 -30.24C-43.24 -28.6 -43.14 -25.4 -43.14 -20.64C-43.14 -15.88 -43.24 -12.68 -43.44 -11.04C-43.64 -9.4 -44.11 -8.36 -44.85 -7.92Z M-1.92 -41.28L-1.92 0L15.66 0C19.7 0 22.6 -0.93 24.36 -2.79C26.12 -4.65 27 -7.38 27 -10.98C27 -14.1 26.47 -16.4 25.41 -17.88C24.35 -19.36 22.62 -20.38 20.22 -20.94L20.22 -21.18C22.42 -21.7 24.04 -22.72 25.08 -24.24C26.12 -25.76 26.64 -27.98 26.64 -30.9C26.64 -34.38 25.73 -36.98 23.91 -38.7C22.09 -40.42 19.34 -41.28 15.66 -41.28ZM15.54 -25.02C14.9 -24.78 13.94 -24.66 12.66 -24.66L7.32 -24.66L7.32 -33.54L12.66 -33.54C14.02 -33.54 15.01 -33.43 15.63 -33.21C16.25 -32.99 16.67 -32.58 16.89 -31.98C17.11 -31.38 17.22 -30.42 17.22 -29.1C17.22 -27.86 17.1 -26.93 16.86 -26.31C16.62 -25.69 16.18 -25.26 15.54 -25.02ZM15.87 -8.1C15.25 -7.86 14.26 -7.74 12.9 -7.74L7.32 -7.74L7.32 -17.04L12.9 -17.04C14.22 -17.04 15.2 -16.92 15.84 -16.68C16.48 -16.44 16.92 -16 17.16 -15.36C17.4 -14.72 17.52 -13.72 17.52 -12.36C17.52 -11 17.4 -10.01 17.16 -9.39C16.92 -8.77 16.49 -8.34 15.87 -8.1Z M39.36 0L62.34 0L62.34 -8.04L48.66 -8.04L48.66 -41.28L39.36 -41.28Z M77.13 -1.35C79.27 -0.13 82.84 0.48 87.84 0.48C92.88 0.48 96.47 -0.13 98.61 -1.35C100.75 -2.57 102.08 -4.52 102.6 -7.2C103.12 -9.88 103.38 -14.36 103.38 -20.64C103.38 -26.92 103.12 -31.4 102.6 -34.08C102.08 -36.76 100.75 -38.71 98.61 -39.93C96.47 -41.15 92.88 -41.76 87.84 -41.76C82.84 -41.76 79.27 -41.15 77.13 -39.93C74.99 -38.71 73.65 -36.75 73.11 -34.05C72.57 -31.35 72.3 -26.88 72.3 -20.64C72.3 -14.4 72.57 -9.93 73.11 -7.23C73.65 -4.53 74.99 -2.57 77.13 -1.35ZM92.19 -7.92C91.45 -7.48 90 -7.26 87.84 -7.26C85.68 -7.26 84.23 -7.48 83.49 -7.92C82.75 -8.36 82.28 -9.4 82.08 -11.04C81.88 -12.68 81.78 -15.88 81.78 -20.64C81.78 -25.4 81.88 -28.6 82.08 -30.24C82.28 -31.88 82.75 -32.92 83.49 -33.36C84.23 -33.8 85.68 -34.02 87.84 -34.02C90 -34.02 91.45 -33.8 92.19 -33.36C92.93 -32.92 93.4 -31.88 93.6 -30.24C93.8 -28.6 93.9 -25.4 93.9 -20.64C93.9 -15.88 93.8 -12.68 93.6 -11.04C93.4 -9.4 92.93 -8.36 92.19 -7.92Z M130.26 -16.62L135.06 -16.62L135.06 -7.2C133.62 -7.12 132.42 -7.08 131.46 -7.08C129.26 -7.08 127.69 -7.4 126.75 -8.04C125.81 -8.68 125.19 -9.9 124.89 -11.7C124.59 -13.5 124.44 -16.48 124.44 -20.64C124.44 -25.2 124.66 -28.35 125.1 -30.09C125.54 -31.83 126.38 -32.92 127.62 -33.36C128.86 -33.8 131.18 -34.02 134.58 -34.02C136.42 -34.02 139.42 -33.76 143.58 -33.24L143.58 -40.44C142.46 -40.72 140.72 -41.01 138.36 -41.31C136 -41.61 133.7 -41.76 131.46 -41.76C126.86 -41.76 123.41 -41.16 121.11 -39.96C118.81 -38.76 117.22 -36.68 116.34 -33.72C115.46 -30.76 115.02 -26.4 115.02 -20.64C115.02 -14.6 115.45 -10.12 116.31 -7.2C117.17 -4.28 118.71 -2.27 120.93 -1.17C123.15 -0.07 126.56 0.48 131.16 0.48C133.12 0.48 135.27 0.35 137.61 0.09C139.95 -0.17 142 -0.5 143.76 -0.9L143.76 -24L130.26 -24Z M171.24 -16.62L176.04 -16.62L176.04 -7.2C174.6 -7.12 173.4 -7.08 172.44 -7.08C170.24 -7.08 168.67 -7.4 167.73 -8.04C166.79 -8.68 166.17 -9.9 165.87 -11.7C165.57 -13.5 165.42 -16.48 165.42 -20.64C165.42 -25.2 165.64 -28.35 166.08 -30.09C166.52 -31.83 167.36 -32.92 168.6 -33.36C169.84 -33.8 172.16 -34.02 175.56 -34.02C177.4 -34.02 180.4 -33.76 184.56 -33.24L184.56 -40.44C183.44 -40.72 181.7 -41.01 179.34 -41.31C176.98 -41.61 174.68 -41.76 172.44 -41.76C167.84 -41.76 164.39 -41.16 162.09 -39.96C159.79 -38.76 158.2 -36.68 157.32 -33.72C156.44 -30.76 156 -26.4 156 -20.64C156 -14.6 156.43 -10.12 157.29 -7.2C158.15 -4.28 159.69 -2.27 161.91 -1.17C164.13 -0.07 167.54 0.48 172.14 0.48C174.1 0.48 176.25 0.35 178.59 0.09C180.93 -0.17 182.98 -0.5 184.74 -0.9L184.74 -24L171.24 -24Z M198 0L222.84 0L222.84 -7.74L207.3 -7.74L207.3 -16.98L220.62 -16.98L220.62 -24.72L207.3 -24.72L207.3 -33.54L222.84 -33.54L222.84 -41.28L198 -41.28Z M255.54 0L265.32 0L259.56 -15.9C261.52 -16.86 262.82 -18.37 263.46 -20.43C264.1 -22.49 264.42 -24.98 264.42 -27.9C264.42 -31.02 264.13 -33.52 263.55 -35.4C262.97 -37.28 261.82 -38.73 260.1 -39.75C258.38 -40.77 255.82 -41.28 252.42 -41.28L235.44 -41.28L235.44 0L244.74 0L244.74 -14.46L250.74 -14.46ZM253.17 -22.56C252.43 -22.28 251.18 -22.14 249.42 -22.14L244.74 -22.14L244.74 -33.54L249.48 -33.54C251.24 -33.54 252.49 -33.41 253.23 -33.15C253.97 -32.89 254.45 -32.39 254.67 -31.65C254.89 -30.91 255 -29.64 255 -27.84C255 -26.08 254.88 -24.83 254.64 -24.09C254.4 -23.35 253.91 -22.84 253.17 -22.56Z"></path></g></g></g></svg>