<?xml version="1.0" ?><!DOCTYPE svg  PUBLIC '-//W3C//DTD SVG 1.1//EN'  'http://www.w3.org/Graphics/SVG/1.1/DTD/svg11.dtd'><svg enable-background="new 0 0.009 141.732 141.732" height="141.732px" id="Livello_1" version="1.1" viewBox="0 0.009 141.732 141.732" width="141.732px" xml:space="preserve" xmlns="http://www.w3.org/2000/svg" xmlns:xlink="http://www.w3.org/1999/xlink"><g id="Livello_108"><path d="M55.77,82.299H36.078v9.861h1.693v49.582h16.433V92.156h1.566L55.77,82.299L55.77,82.299z M59.574,45.471   c0-0.048-0.005-0.086-0.005-0.134h0.005V2.735c0-1.505-1.22-2.726-2.724-2.726c-1.503,0-2.724,1.22-2.724,2.726v22.442V34.9v1.084   c-0.25,1.243-1.351,2.185-2.672,2.185c-1.504,0-2.724-1.22-2.724-2.723V20.639V2.735c-0.003-1.506-1.236-2.727-2.756-2.727   s-2.752,1.22-2.752,2.726v17.88V35.44c0,1.503-1.22,2.724-2.725,2.724c-1.502,0-2.723-1.218-2.723-2.724V2.751h-0.011   c0.002-0.038,0.009-0.071,0.009-0.109c0-1.456-1.223-2.634-2.729-2.634c-1.505,0-2.726,1.178-2.726,2.632   c0,0.038,0.004,0.071,0.006,0.109h-0.006v42.585h0.004c0,0.05-0.004,0.089-0.004,0.137c0,10.657,3.541,19.768,8.547,23.52v12.851   h10.12V69.02C56.015,65.29,59.574,56.16,59.574,45.471 M97.732,100.856V43.749V0.009C88.282,2.782,81.38,11.524,81.38,21.883   c0,0.021,0.002,0.044,0.003,0.064H81.38v78.91h-2.262v10.904h2.262v29.979h16.352v-29.983h2.125v-10.901H97.732z"/></g><g id="Livello_1_1_"/></svg>